<svg width="19" height="19" viewBox="0 0 19 19" fill="none" xmlns="http://www.w3.org/2000/svg">
<path fill-rule="evenodd" clip-rule="evenodd" d="M16.5651 17.7538C16.8934 18.0821 17.4256 18.0821 17.7539 17.7538C18.0821 17.4256 18.0821 16.8935 17.7539 16.5652L10.0527 8.8639L17.4817 1.43486C17.8099 1.10661 17.8099 0.574426 17.4817 0.246183C17.1534 -0.0820603 16.6213 -0.0820613 16.2929 0.246182L8.86405 7.67523L1.70706 0.518086C1.37882 0.189843 0.846637 0.189843 0.518404 0.518086C0.190166 0.846331 0.190166 1.37852 0.518402 1.70676L7.67541 8.8639L0.246177 16.2932C-0.0820591 16.6216 -0.0820591 17.1537 0.246177 17.4819C0.574414 17.8102 1.10659 17.8102 1.43483 17.4819L8.86406 10.0526L16.5651 17.7538Z" fill="black"/>
</svg>
