<svg width="223" height="223" viewBox="0 0 223 223" fill="none" xmlns="http://www.w3.org/2000/svg">
<path d="M157.465 51.1325C142.347 46.6053 126.625 44.4201 110.845 44.6529C95.0639 44.5276 79.3568 46.8198 64.2698 51.4498C29.8148 62.6635 6.13887 85.783 6.22929 112.336C6.3566 149.725 53.3185 180.055 111.305 179.858C169.162 179.661 216.047 149.141 215.919 111.622C215.829 85.0689 192.061 62.1111 157.465 51.1325ZM111.206 150.734C102.55 150.764 95.4315 133.867 94.968 112.424C100.111 112.96 105.513 113.072 111.078 113.053C116.61 113.034 122.043 112.755 127.216 112.347C126.865 133.727 119.862 150.705 111.206 150.734ZM95.9852 95.7924C98.2117 80.7185 104.033 70.1555 110.932 70.132C117.7 70.1089 123.561 80.6322 126.052 95.6575C116.053 96.5857 105.992 96.6309 95.9852 95.7924ZM135.257 94.4221C131.663 71.0051 122.104 54.1165 110.877 54.1547C99.6508 54.1929 90.2062 71.0161 86.7721 94.5872C65.4792 91.2755 50.5504 83.8745 50.5204 75.0561C50.4798 63.1464 77.5531 53.4221 110.874 53.3087C144.196 53.1952 171.367 62.7347 171.408 74.6445C171.437 83.4303 156.56 91.0955 135.29 94.422L135.257 94.4221ZM21.5149 109.843C21.4757 98.324 25.9298 87.6029 33.61 78.2376C33.4821 78.8888 33.4845 79.6047 33.4863 80.1254C33.5357 94.6383 55.249 106.735 85.4621 111.253L85.4732 114.507C85.5645 141.32 93.1264 164.072 103.436 171.88C57.6424 169.335 21.659 142.611 21.5475 109.843L21.5149 109.843ZM119.153 171.989C129.409 164.079 136.783 141.276 136.692 114.462L136.681 111.208C166.863 106.647 188.493 94.2409 188.444 79.7604C188.441 79.0771 188.439 78.3937 188.307 77.841C196.023 86.5534 200.387 97.7276 200.617 109.364C200.728 142.001 164.928 168.969 119.153 171.956L119.153 171.989Z" fill="#E2001A"/>
</svg>
