<svg width="24" height="24" viewBox="0 0 24 24" fill="none" xmlns="http://www.w3.org/2000/svg">
<path fill-rule="evenodd" clip-rule="evenodd" d="M5.71422 6.46149C6.66047 6.46149 7.42844 5.68612 7.42844 4.73075C7.42844 3.77537 6.66047 3 5.71422 3C4.76797 3 4 3.77537 4 4.73075C4 5.68612 4.76797 6.46149 5.71422 6.46149ZM4 18V7.61547H7.42844V18H4ZM9.71467 7.61547H12.8768V9.25161H12.9226C13.3625 8.45432 14.439 7.61547 16.0447 7.61547C19.3829 7.61547 20 9.71314 20 12.4419V18H16.703V13.0731C16.703 11.8985 16.6789 10.3858 14.9887 10.3858C13.2723 10.3858 13.0094 11.6654 13.0094 12.9878V18H9.71467V7.61547Z" fill="#6C6C6C"/>
</svg>
