<svg width="24" height="24" viewBox="0 0 24 24" fill="none" xmlns="http://www.w3.org/2000/svg">
<g clip-path="url(#clip0_221_12451)">
<path fill-rule="evenodd" clip-rule="evenodd" d="M18.3427 5.09578C18.5394 5.01097 18.7547 4.98172 18.9662 5.01107C19.1777 5.04043 19.3777 5.12731 19.5453 5.26267C19.7129 5.39804 19.842 5.57694 19.9192 5.78076C19.9964 5.98458 20.0188 6.20587 19.9842 6.42158L18.1787 17.6387C18.0035 18.7207 16.8445 19.3412 15.8757 18.8023C15.0653 18.3514 13.8616 17.6567 12.779 16.9318C12.2376 16.5689 10.5794 15.407 10.7832 14.5802C10.9583 13.8733 13.7446 11.2168 15.3367 9.63743C15.9616 9.01693 15.6766 8.65898 14.9387 9.22974C13.1053 10.6469 10.1639 12.8019 9.19107 13.4085C8.33291 13.9434 7.88552 14.0348 7.35056 13.9434C6.37458 13.7771 5.46945 13.5194 4.7307 13.2055C3.73243 12.7815 3.78099 11.3758 4.72991 10.9665L18.3427 5.09578Z" fill="#6C6C6C"/>
</g>
<defs>
<clipPath id="clip0_221_12451">
<rect width="24" height="24" fill="white"/>
</clipPath>
</defs>
</svg>
